<svg xmlns="http://www.w3.org/2000/svg" width="40" height="60" viewBox="0 0 40 60"><defs><style>.a{fill:#231f20;}.b{fill:#6b00ff;}.c{opacity:0.81;}.d{fill:#306;}.e{fill:#6b32ff;}.f{opacity:0.6;}.g{fill:#6e64ff;}.h{opacity:0.3;}.i{fill:#6e96ff;}.j{opacity:0.4;}.k{fill:#6ec8ff;}.l{fill:#2d292a;}</style></defs><g transform="translate(-167.73 -116.24)"><g transform="translate(167.73 116.24)"><path class="a" d="M272.454,411.729v9.119h-9.725v-9.119h9.725m.459-.459H262.27v10.037h10.644Z" transform="translate(-247.685 -366.182)"/><path class="a" d="M288.3,409.856v8.84h-2.364v-8.84H288.3m.766-.766H285.17v10.371h3.895Z" transform="translate(-267.078 -364.336)"/><path class="b" d="M183.6,162.931l-.071-.087c-.584-.73-14.3-18-14.3-26.293,0-10.14,8.827-18.39,19.678-18.39s19.678,8.251,19.678,18.39c0,4.207-2.433,9.915-7.237,16.965a101.42,101.42,0,0,1-7.211,9.339l-.068.078Z" transform="translate(-169 -117.866)"/><path class="a" d="M187.633,117.119c10.739,0,19.445,8.131,19.445,18.161S192.7,161.431,192.7,161.431H182.444s-14.252-17.841-14.252-26.151c0-10.03,8.707-18.161,19.445-18.161m0-.459a20.493,20.493,0,0,0-14.066,5.444,17.932,17.932,0,0,0-5.841,13.176c0,3.537,2.422,9.068,7.2,16.44,3.541,5.455,7.118,9.952,7.153,10l.139.175h10.688l.139-.153a102.379,102.379,0,0,0,7.227-9.362c4.824-7.089,7.27-12.841,7.27-17.094a17.908,17.908,0,0,0-5.841-13.176,20.486,20.486,0,0,0-14.071-5.446Z" transform="translate(-167.73 -116.596)"/><g class="c" transform="translate(1.451 23.297)"><path class="d" d="M177.21,268.73c3.119,8.84,13.18,21.489,13.18,21.489h1.657s-1.174-6.277-4.957-9.111C182.118,277.4,177.21,268.73,177.21,268.73Z" transform="translate(-177.21 -268.73)"/></g><path class="e" d="M189.032,162.575v-.228c0-.092-.177-9.233-7.148-13.272-11.176-6.476-11.434-13.686-10.6-17.408,1.631-7.223,9.662-13.053,19.093-13.863.5-.043,1.013-.064,1.515-.064a17.824,17.824,0,0,1,12.893,5.6,18.752,18.752,0,0,1,5.291,12.86c0,4.207-2.433,9.915-7.237,16.965a101.424,101.424,0,0,1-7.211,9.339l-.068.078Z" transform="translate(-170.496 -117.51)"/><path class="a" d="M190.56,116.7c10,0,17.951,8.667,17.951,18.219,0,10.03-14.382,26.151-14.382,26.151h-6.206s-.092-9.315-7.263-13.473c-20.515-11.881-8.359-29.4,8.4-30.833.5-.043,1-.064,1.5-.064m0-.459c-.508,0-1.025.021-1.54.066a25.344,25.344,0,0,0-12.593,4.584,16.58,16.58,0,0,0-6.707,9.459,12.561,12.561,0,0,0,1.424,9.025c1.792,3.2,4.915,6.1,9.278,8.63a14.082,14.082,0,0,1,6.1,8.009,19.076,19.076,0,0,1,.924,5.068v.459h6.87l.139-.153a102.369,102.369,0,0,0,7.227-9.362c4.824-7.089,7.27-12.841,7.27-17.094a18.981,18.981,0,0,0-5.355-13.014,18.038,18.038,0,0,0-13.058-5.665Z" transform="translate(-169.158 -116.24)"/><g class="f" transform="translate(0.648 8.16)"><path class="d" d="M182.763,192.75c6.951,4.086,7.213,13.465,7.213,13.465h1.285s.79-12.424-8.312-17.538c-12.848-7.217-7.5-19.138-7.5-19.138S163.937,181.682,182.763,192.75Z" transform="translate(-171.963 -169.54)"/></g><path class="g" d="M211.9,162.575l.057-.276a33.275,33.275,0,0,0,.4-8.632c-.565-6.014-2.938-9.921-7.052-11.611-4.192-1.722-7.315-3.864-9.286-6.366a9.292,9.292,0,0,1-2.157-7.237,10.876,10.876,0,0,1,4.856-7.043,22.512,22.512,0,0,1,10.939-3.607c.5-.043,1.014-.064,1.516-.064a17.839,17.839,0,0,1,12.9,5.6,18.746,18.746,0,0,1,5.294,12.86c0,4.207-2.434,9.915-7.241,16.965a101.421,101.421,0,0,1-7.215,9.339l-.068.078Z" transform="translate(-189.779 -117.51)"/><path class="a" d="M209.859,116.7c10,0,17.961,8.667,17.961,18.219,0,10.03-14.39,26.151-14.39,26.151h-2.559s3.341-16.331-6.791-20.5c-18.573-7.632-12.491-22.373,4.278-23.81.5-.043,1-.064,1.5-.064m0-.459c-.508,0-1.026.021-1.541.066a22.717,22.717,0,0,0-11.046,3.647,11.1,11.1,0,0,0-4.951,7.2,9.5,9.5,0,0,0,2.2,7.415c1.993,2.532,5.15,4.7,9.377,6.43,4.032,1.657,6.356,5.5,6.912,11.43a33.023,33.023,0,0,1-.4,8.555l-.114.551h3.334l.139-.153A102.377,102.377,0,0,0,221,152.015c4.826-7.089,7.274-12.841,7.274-17.094a18.976,18.976,0,0,0-5.358-13.014,18.053,18.053,0,0,0-13.065-5.665Z" transform="translate(-188.467 -116.24)"/><g class="h" transform="translate(4.169 6.291)"><path class="a" d="M206.331,175.373c10.069,4.164,6.749,20.5,6.749,20.5h1.249s7.277-17.594-3.746-21.489c-16.6-5.865-13.22-17.055-13.22-17.055C189.669,166.4,202.588,175.068,206.331,175.373Z" transform="translate(-194.96 -157.33)"/></g><path class="i" d="M237.94,155.893a28.684,28.684,0,0,0-.354-7.869c-.726-3.8-2.664-8.762-7.767-10.87-9.543-3.945-14.851-8.794-14.214-12.968.53-3.426,5.052-5.757,12.4-6.392.5-.043,1.006-.064,1.507-.064a18.67,18.67,0,0,1,13.793,6.225,15.82,15.82,0,0,1,4.287,12.248c-1.059,10.411-9.171,19.773-9.252,19.866l-.491.56Z" transform="translate(-208.009 -117.502)"/><path class="a" d="M228.177,116.7c10.03,0,18.819,8.7,17.85,18.219-1.064,10.461-9.2,19.739-9.2,19.739s1.81-14.819-8.267-18.984c-18.45-7.623-18.542-17.472-1.877-18.909.5-.043.994-.064,1.487-.064m0-.459c-.508,0-1.021.021-1.531.066a23.945,23.945,0,0,0-8.938,2.218c-2.134,1.125-3.4,2.635-3.674,4.368-.66,4.287,4.7,9.224,14.353,13.214,4.023,1.663,6.583,5.268,7.631,10.717a28.4,28.4,0,0,1,.349,7.787l-.181,1.479.983-1.121a44.339,44.339,0,0,0,4.247-6.014,35.516,35.516,0,0,0,5.06-13.981,15,15,0,0,0-.85-6.684,17.41,17.41,0,0,0-3.472-5.749,19.474,19.474,0,0,0-6.225-4.575,18.338,18.338,0,0,0-7.739-1.725Z" transform="translate(-206.671 -116.24)"/><g class="j" transform="translate(7.726 1.188)"><path class="a" d="M230.912,142.251c10.322,4.314,8.007,19.519,8.007,19.519l4.143-5.732c.459-4.556-3.158-13.473-10.895-16.553C213.918,132.226,224.6,124,224.6,124,213.9,125.929,212.431,134.527,230.912,142.251Z" transform="translate(-216.736 -124)"/></g><path class="k" d="M292.775,144.191c-.043-.1-4.287-10.074-9.858-12.759-4.235-2.044-11.913-8.009-11.256-11.236.248-1.225,1.6-1.9,4.025-2.015q.459-.021.919-.021a18.72,18.72,0,0,1,13.216,5.426,17.8,17.8,0,0,1,5.437,12.727,20.266,20.266,0,0,1-2.071,7.894l-.225.441Z" transform="translate(-255.493 -117.866)"/><path class="a" d="M275.336,117.119c10.241,0,18.426,8.319,18.426,17.923a20.217,20.217,0,0,1-2.047,7.79s-4.261-10.123-9.97-12.877c-5.487-2.649-17.234-12.34-7.32-12.815.306-.014.612-.021.911-.021m0-.459c-.306,0-.623,0-.932.021-2.54.122-3.967.862-4.239,2.2-.395,1.938,1.92,4.509,3.932,6.323a35.7,35.7,0,0,0,7.45,5.166c5.486,2.647,9.7,12.542,9.745,12.641l.384.919.449-.88a20.438,20.438,0,0,0,2.1-8,17.54,17.54,0,0,0-1.476-7.043,18.669,18.669,0,0,0-4.033-5.854,18.944,18.944,0,0,0-13.376-5.492Z" transform="translate(-254.221 -116.596)"/><g class="h" transform="translate(16.324 0.371)"><path class="a" d="M284.063,131.66c5.709,2.794,9.976,13.064,9.976,13.064l1.138-2.022c-.343-3.639-2.866-10.74-7.119-12.614-10.619-4.677-11.319-11.427-11.319-11.427C266.828,119.141,278.576,128.97,284.063,131.66Z" transform="translate(-272.895 -118.66)"/></g><path class="l" d="M262.27,447.094v7.6a13.306,13.306,0,0,0,10.644,0v-7.6A17.5,17.5,0,0,0,262.27,447.094Z" transform="translate(-247.685 -395.809)"/></g></g></svg>